<svg width="19" height="26" viewBox="0 0 19 26" fill="none" xmlns="http://www.w3.org/2000/svg">
<path d="M18.3365 12.3926L6.524 25.0488C6.39882 25.1824 6.23359 25.2717 6.05323 25.3031C5.87288 25.3346 5.68719 25.3065 5.52419 25.2231C5.36118 25.1398 5.22971 25.0057 5.14961 24.8411C5.06951 24.6764 5.04512 24.4902 5.08013 24.3105L6.62631 16.5765L0.548142 14.2942C0.417606 14.2453 0.301197 14.1649 0.209317 14.0601C0.117436 13.9554 0.0529461 13.8294 0.0216074 13.6936C-0.00973134 13.5578 -0.00694226 13.4164 0.0297252 13.2819C0.0663927 13.1475 0.135796 13.0242 0.231736 12.9231L12.0442 0.266828C12.1694 0.133237 12.3346 0.0439846 12.515 0.0125399C12.6954 -0.0189049 12.881 0.00916403 13.0441 0.092511C13.2071 0.175858 13.3385 0.30996 13.4186 0.474582C13.4987 0.639204 13.5231 0.825413 13.4881 1.00511L11.9377 8.74757L18.0159 11.0268C18.1455 11.0759 18.2609 11.1562 18.3521 11.2606C18.4433 11.365 18.5073 11.4902 18.5386 11.6252C18.5699 11.7602 18.5674 11.9009 18.5314 12.0347C18.4954 12.1685 18.427 12.2914 18.3323 12.3926H18.3365Z" fill="#FFB128"/>
</svg>
